<?xml version="1.0" standalone="no"?>
<!DOCTYPE svg PUBLIC "-//W3C//DTD SVG 20010904//EN"
 "http://www.w3.org/TR/2001/REC-SVG-20010904/DTD/svg10.dtd">
<svg version="1.0" xmlns="http://www.w3.org/2000/svg"
 width="700.000000pt" height="700.000000pt" viewBox="0 0 700.000000 700.000000"
 preserveAspectRatio="xMidYMid meet">
<metadata>
Created by potrace 1.14, written by Peter Selinger 2001-2017
</metadata>
<g transform="translate(0.000000,700.000000) scale(0.100000,-0.100000)"
fill="#000000" stroke="none">
<path d="M420 6516 c0 -16 172 -289 262 -413 74 -104 87 -138 148 -383 43
-175 81 -268 127 -312 15 -15 71 -50 123 -78 123 -67 159 -103 205 -203 95
-212 139 -289 194 -347 57 -59 134 -108 231 -149 82 -34 97 -46 104 -85 13
-68 117 -134 296 -187 29 -9 49 -24 68 -51 17 -24 70 -67 138 -113 150 -99
183 -143 318 -413 190 -381 343 -837 470 -1405 59 -260 65 -347 65 -877 1
-368 -6 -601 -25 -933 l-7 -117 25 0 c24 0 25 2 31 99 20 335 30 974 19 1277
l-12 319 -50 220 c-143 627 -290 1066 -491 1461 -130 255 -167 300 -382 466
-95 74 -157 114 -200 130 -50 18 -77 38 -137 99 -74 74 -117 102 -215 141 -57
23 -115 57 -184 109 -53 41 -100 127 -151 275 -15 45 -33 91 -40 104 -17 32
-90 110 -103 110 -6 0 -20 9 -32 20 -12 11 -51 36 -86 55 -54 29 -60 35 -36
35 40 0 33 15 -17 34 -69 26 -108 78 -146 190 -17 53 -42 109 -54 124 -13 15
-31 61 -41 102 -29 124 -61 195 -128 293 -60 86 -177 272 -177 282 0 2 28 -12
61 -32 100 -58 239 -120 318 -142 41 -11 75 -22 76 -23 1 -2 12 -25 24 -52 26
-60 39 -54 18 7 l-15 45 61 -14 c142 -32 444 -152 642 -256 72 -38 191 -123
285 -203 99 -84 177 -180 310 -377 79 -118 108 -173 148 -275 95 -244 127
-382 138 -603 9 -176 -9 -196 -24 -26 -28 308 -90 537 -176 650 -13 17 -27 46
-30 64 -8 35 -22 42 -29 15 -3 -10 -5 -1 -6 20 -1 23 -5 36 -11 32 -5 -3 -10
1 -10 9 0 9 -4 16 -9 16 -4 0 -11 -30 -14 -67 -10 -97 -8 -143 3 -143 15 0 12
-101 -6 -184 l-17 -75 -95 127 c-52 70 -148 190 -212 267 l-117 140 -7 70 -7
70 30 -30 c17 -16 31 -24 31 -19 0 6 -16 25 -35 44 -19 19 -35 40 -35 48 0 10
11 6 35 -12 19 -15 35 -23 35 -17 0 5 -16 22 -35 37 -35 27 -61 61 -52 70 2 3
28 -16 56 -42 28 -26 55 -44 58 -40 6 6 -66 81 -103 106 -22 15 -42 70 -25 70
5 0 34 -28 65 -62 31 -34 56 -56 56 -49 0 22 -50 86 -87 111 -39 25 -53 39
-53 53 0 16 19 5 73 -44 32 -28 60 -49 63 -46 9 9 -63 82 -100 102 -25 14 -36
26 -36 43 0 32 21 19 98 -59 64 -65 83 -68 34 -6 -32 40 -76 78 -109 96 -13 6
-23 21 -23 31 0 25 -16 26 -23 1 -6 -24 18 -173 45 -276 11 -44 24 -113 27
-153 l7 -72 -109 107 c-62 62 -119 128 -133 155 -31 62 -30 68 6 33 54 -51 35
0 -20 56 -58 59 -59 77 -3 30 21 -17 41 -31 46 -31 18 0 -37 62 -74 83 -21 12
-39 28 -39 35 0 21 13 14 62 -35 26 -26 50 -44 53 -41 8 7 -69 91 -98 107 -25
13 -44 41 -29 41 4 0 31 -18 61 -41 29 -22 55 -38 57 -36 7 6 -73 76 -102 89
-16 7 -24 19 -24 36 0 23 3 22 55 -23 30 -25 55 -42 55 -37 0 13 -111 112
-126 112 -6 0 -9 -12 -6 -30 3 -24 1 -30 -14 -30 -18 -1 -18 -1 -1 -14 21 -16
23 -48 2 -40 -8 4 -15 1 -15 -5 0 -6 7 -11 15 -11 23 0 37 -43 16 -52 -13 -6
-12 -8 7 -14 12 -3 22 -13 22 -21 0 -9 -6 -13 -15 -9 -8 3 -15 1 -15 -4 0 -5
9 -12 20 -15 12 -4 34 -33 52 -68 l31 -62 -39 35 c-22 20 -84 70 -139 111 -91
70 -104 83 -142 155 -23 43 -49 107 -59 141 -9 34 -20 60 -24 58 -13 -8 11
-109 41 -174 16 -35 28 -65 27 -67 -6 -5 -244 166 -348 249 -58 47 -106 81
-108 76 -5 -11 43 -52 215 -186 133 -104 141 -111 106 -107 -69 10 -83 14 -83
29 0 18 -17 20 -22 4 -2 -7 -13 -9 -26 -5 -15 5 -22 15 -22 34 -1 26 -1 26
-13 6 -7 -12 -18 -19 -24 -17 -18 6 -16 -14 1 -20 8 -3 18 -33 25 -69 10 -58
96 -256 107 -245 2 2 -11 37 -31 78 -28 60 -71 207 -62 215 1 1 12 -2 25 -7
18 -7 22 -16 22 -48 0 -44 31 -136 56 -167 17 -21 18 -25 -10 76 -7 25 -16 64
-20 87 -5 38 -4 41 14 36 11 -3 18 -9 15 -13 -6 -9 11 -70 36 -127 13 -31 23
-43 30 -36 7 7 3 27 -11 62 -20 52 -27 111 -12 111 4 0 16 -34 27 -76 20 -80
42 -115 31 -48 l-6 39 15 -27 c20 -35 39 -37 31 -3 -6 23 -2 21 30 -15 20 -22
40 -40 45 -40 4 0 9 16 11 36 l3 35 51 -38 c64 -48 215 -175 212 -179 -4 -2
-288 23 -343 31 -22 3 -52 8 -67 11 -16 3 -28 2 -28 -3 0 -10 37 -16 315 -54
l160 -22 62 -60 c34 -33 60 -64 57 -69 -3 -5 0 -15 6 -23 11 -13 7 -15 -19
-15 -24 0 -34 6 -43 25 -6 14 -15 25 -20 25 -10 0 -10 -3 2 -34 14 -38 -2 -32
-24 9 -10 19 -23 32 -27 29 -5 -3 -2 -18 6 -35 15 -27 14 -29 -3 -29 -12 0
-25 14 -37 40 -10 22 -22 40 -27 40 -11 0 -10 -5 6 -45 14 -33 14 -35 -5 -35
-12 0 -25 12 -36 35 -9 19 -20 32 -25 29 -4 -3 -1 -18 7 -35 15 -28 15 -29 -8
-29 -16 0 -29 10 -40 33 -17 32 -17 32 -14 4 4 -24 2 -27 -17 -21 -11 3 -25
11 -31 18 -5 6 -21 12 -35 13 -25 3 -25 3 -5 -15 11 -9 33 -42 47 -72 27 -55
102 -139 114 -127 4 3 -9 28 -29 54 -49 68 -71 113 -55 113 22 0 33 -13 63
-67 15 -28 41 -67 57 -85 l30 -33 -28 50 c-15 28 -36 65 -47 83 l-19 32 26 0
c19 0 30 -9 42 -32 25 -49 66 -109 71 -104 2 2 -8 28 -24 58 -37 71 -36 68
-21 68 7 0 26 -20 41 -45 16 -25 33 -45 38 -45 13 0 12 2 -17 54 -24 42 -24
46 -7 46 10 0 26 -12 35 -28 9 -15 27 -36 39 -47 22 -19 22 -18 -3 28 -32 57
-21 62 16 7 14 -22 31 -40 37 -40 11 0 7 9 -23 53 -11 15 -15 27 -9 27 5 0 16
3 25 6 10 4 22 -5 36 -28 20 -33 29 -23 10 12 -6 11 -6 21 -1 24 10 6 83 -74
195 -213 66 -82 68 -85 45 -93 -17 -6 -25 -5 -31 7 -5 8 -14 15 -20 15 -7 0
-6 -6 2 -15 7 -9 10 -19 6 -23 -4 -4 -13 1 -20 11 -18 23 -25 21 -18 -5 l5
-23 -23 20 c-20 17 -23 18 -17 3 7 -19 -8 -25 -18 -8 -3 6 -11 10 -16 10 -6 0
-7 -5 -3 -12 14 -21 -126 2 -251 42 -112 37 -135 33 -40 -7 35 -14 44 -23 53
-57 14 -54 49 -105 91 -133 50 -34 49 -21 -4 31 -41 42 -75 98 -75 125 0 17
40 -1 52 -23 24 -46 80 -126 89 -126 5 0 -9 29 -31 64 -44 69 -46 76 -27 76 7
0 27 -24 44 -53 17 -29 42 -61 54 -72 l23 -20 -24 40 c-13 22 -32 52 -42 68
-36 51 1 27 42 -28 22 -30 43 -55 45 -55 12 0 2 21 -30 63 -40 53 -18 55 27 3
14 -17 30 -28 34 -23 4 4 -3 18 -16 32 -16 17 -19 25 -9 25 8 0 27 -16 42 -36
16 -19 31 -33 34 -30 3 3 -4 17 -16 32 -32 40 -16 42 25 3 26 -24 33 -28 25
-12 -6 12 -16 25 -21 28 -6 4 -8 11 -4 16 3 5 15 -2 26 -16 11 -14 23 -24 26
-21 2 3 -1 12 -8 21 -7 9 -10 18 -7 22 4 3 16 -6 28 -21 26 -33 37 -27 14 7
-15 24 -15 26 1 35 15 8 24 2 49 -32 47 -60 135 -185 135 -190 0 -6 -51 -17
-108 -22 -37 -4 -52 -2 -47 5 3 6 2 11 -4 11 -5 0 -13 -4 -16 -10 -11 -18 -27
-11 -22 10 3 11 1 23 -5 26 -5 3 -12 -3 -15 -15 -3 -12 -13 -21 -25 -21 -16 0
-17 3 -8 23 11 22 11 22 -7 2 -13 -14 -28 -19 -53 -17 -26 2 -31 0 -20 -8 8
-5 22 -10 31 -10 10 0 20 -13 24 -32 l8 -33 4 28 c6 41 30 35 25 -7 -7 -60 4
-75 18 -23 16 60 34 62 25 3 -7 -46 0 -86 15 -86 5 0 10 28 12 62 3 52 6 63
22 66 15 3 17 0 11 -14 -12 -32 -18 -141 -8 -147 6 -4 12 21 16 61 6 78 14
102 32 102 11 0 10 -9 -1 -47 -18 -60 -18 -117 1 -133 13 -11 15 -6 15 39 0
29 5 72 11 97 10 37 17 47 47 60 28 12 37 12 44 2 76 -115 93 -165 59 -176
-11 -4 -12 3 -7 32 4 20 3 36 -2 36 -6 0 -13 -16 -16 -36 -5 -26 -12 -34 -24
-32 -13 2 -19 17 -23 58 -7 64 -7 64 -25 -15 l-13 -60 4 73 c4 83 -8 95 -24
22 -16 -74 -14 -86 19 -120 l30 -31 0 31 c0 25 4 31 18 28 11 -2 18 -14 20
-38 4 -36 17 -60 34 -60 5 0 4 9 -2 19 -15 29 -13 71 4 71 10 0 13 -10 9 -37
-3 -25 1 -45 11 -58 14 -19 15 -16 16 38 0 31 4 57 9 57 5 0 7 10 4 23 -4 18
-1 17 14 -8 17 -26 19 -44 15 -126 -3 -59 0 -104 7 -115 8 -15 11 4 11 81 1
91 2 98 16 80 8 -11 12 -26 8 -35 -3 -8 -9 -46 -12 -84 -3 -50 -2 -67 7 -62 6
4 11 26 12 49 0 23 4 51 9 62 6 13 7 -10 4 -62 -6 -74 -4 -85 17 -120 l24 -38
3 35 c4 58 13 102 19 96 3 -3 5 -41 4 -85 -1 -47 2 -82 9 -86 6 -4 10 14 11
52 l2 58 7 -60 c4 -32 13 -61 19 -63 6 -2 11 -10 11 -17 0 -20 21 -30 31 -14
7 11 9 11 9 -2 0 -9 11 -32 24 -52 14 -20 45 -94 69 -164 43 -121 187 -425
208 -439 6 -3 23 -1 38 6 31 12 49 63 108 292 14 59 28 106 31 104 2 -2 -6
-46 -17 -98 -11 -51 -29 -149 -41 -216 -11 -68 -28 -135 -37 -149 -15 -22 -15
-29 0 -76 9 -29 19 -69 23 -90 3 -20 10 -40 16 -43 5 -3 6 -14 3 -25 -4 -13
-2 -19 9 -19 10 0 16 -9 16 -25 0 -14 -4 -25 -10 -25 -5 0 -10 -7 -10 -16 0
-10 7 -14 22 -12 15 2 24 -3 26 -14 2 -11 -3 -18 -12 -18 -9 0 -16 -4 -16 -10
0 -5 9 -10 20 -10 27 0 38 -29 17 -45 -25 -18 -21 -28 8 -21 18 5 25 2 25 -8
0 -8 -5 -18 -10 -21 -15 -10 -12 -28 4 -22 8 3 17 -1 20 -9 10 -27 7 -44 -9
-44 -8 0 -15 -5 -15 -11 0 -6 9 -9 20 -6 29 7 53 -76 38 -127 -9 -30 -8 -39 5
-54 20 -22 22 -39 6 -44 -8 -3 -6 -15 7 -38 10 -19 19 -42 19 -50 0 -9 9 -14
23 -13 17 2 22 -2 22 -21 0 -13 -7 -26 -15 -30 -25 -9 -17 -29 10 -24 18 4 26
0 30 -13 8 -23 -1 -39 -21 -39 -9 0 -14 -6 -11 -12 2 -7 13 -12 25 -11 24 3
30 -10 38 -83 6 -48 5 -54 -10 -48 -9 4 -16 1 -16 -6 0 -6 9 -14 19 -17 12 -3
21 -16 23 -35 4 -27 3 -29 -20 -23 -17 4 -23 2 -20 -7 3 -7 14 -14 26 -16 12
-2 22 -7 22 -12 0 -5 3 -15 6 -23 4 -11 -1 -13 -20 -10 -34 7 -33 -12 2 -34
15 -9 37 -28 48 -42 20 -23 24 -24 49 -13 24 11 27 11 21 -3 -3 -9 -6 -23 -6
-31 0 -9 -11 -14 -34 -14 -46 0 -55 -18 -17 -31 17 -6 31 -15 31 -20 0 -5 -12
-4 -27 2 -27 10 -53 6 -53 -9 0 -4 16 -14 36 -21 26 -9 33 -16 25 -24 -7 -7
-16 -6 -29 6 -23 21 -32 21 -32 3 0 -8 11 -23 25 -34 29 -23 35 -58 8 -47 -29
11 -35 11 -40 -2 -3 -7 7 -18 21 -24 14 -7 26 -18 26 -26 0 -16 -12 -17 -28
-1 -9 9 -15 9 -23 1 -8 -8 -2 -17 20 -34 17 -12 31 -31 31 -42 0 -15 -5 -18
-30 -12 -40 9 -40 -13 0 -28 35 -13 42 -47 10 -47 -11 0 -20 -5 -20 -11 0 -6
9 -13 20 -16 13 -3 20 -14 20 -29 0 -17 -6 -23 -27 -26 -33 -4 -34 -21 -1 -28
16 -4 24 -14 26 -34 3 -27 2 -28 -27 -23 -17 4 -31 5 -31 3 0 -2 12 -25 26
-51 26 -46 26 -47 5 -40 -16 5 -21 2 -21 -10 0 -9 9 -19 20 -22 26 -7 26 -38
1 -60 -17 -14 -18 -18 -5 -27 13 -10 13 -44 -1 -296 -8 -157 -18 -324 -21
-373 l-7 -87 47 0 46 0 0 208 c0 383 45 977 91 1206 32 160 175 471 296 645
331 475 721 932 998 1171 103 88 591 447 770 567 259 172 476 274 928 433 97
34 177 67 177 72 0 18 -75 40 -150 45 -41 3 -115 1 -165 -4 -50 -5 -199 -6
-335 -2 -356 11 -636 11 -795 -1 -783 -58 -1054 -305 -1420 -1295 -53 -143
-84 -215 -99 -225 -51 -36 -104 -93 -129 -138 -40 -74 -56 -161 -62 -342 -12
-327 -48 -589 -94 -678 -19 -36 -19 -36 -25 -12 -3 14 -8 52 -11 85 -16 148
-54 294 -221 850 -84 281 -87 294 -92 412 -5 147 10 247 74 469 86 299 93 310
292 406 70 33 168 80 217 103 120 58 205 138 415 390 91 110 195 229 231 265
135 137 235 279 381 540 142 255 363 713 353 731 -16 25 -40 10 -335 -196
-144 -101 -351 -235 -362 -235 -7 0 -403 -263 -555 -368 -55 -39 -104 -68
-107 -65 -3 3 -15 -6 -28 -20 -13 -15 -69 -49 -124 -77 -93 -46 -110 -59 -190
-146 -150 -163 -191 -236 -226 -402 -19 -89 -20 -120 -13 -387 5 -209 3 -298
-5 -320 -6 -16 -38 -133 -71 -260 -79 -304 -77 -299 -96 -283 -43 35 -209 420
-223 516 -5 37 -14 159 -20 272 -12 236 -31 379 -65 501 -36 130 -119 335
-167 415 -81 133 -221 326 -286 396 -231 244 -639 469 -1026 563 -55 14 -102
28 -105 32 -3 5 -26 9 -50 10 -51 2 -249 95 -408 191 -56 34 -105 62 -108 62
-3 0 -5 -6 -5 -14z m4437 -403 c-83 -176 -206 -369 -311 -486 -25 -27 -158
-87 -193 -87 -13 0 -2 16 38 53 69 63 146 154 264 312 76 101 209 255 221 255
2 0 -7 -21 -19 -47z m-217 -82 c-12 -17 -26 -31 -31 -31 -6 0 -15 -13 -20 -30
-6 -16 -14 -28 -19 -25 -12 7 -38 -28 -55 -74 -20 -58 -20 -59 17 -25 18 16
26 21 19 12 -25 -33 3 -18 48 25 25 23 -1 -7 -56 -68 -56 -60 -136 -144 -178
-185 -89 -87 -91 -80 -15 75 76 156 147 251 233 311 39 28 74 49 76 48 2 -2
-7 -17 -19 -33z m-30 -85 c0 -2 -8 -10 -17 -17 -16 -13 -17 -12 -4 4 13 16 21
21 21 13z m-215 -109 c-72 -105 -130 -219 -140 -276 -6 -35 -24 -53 -228 -222
-122 -101 -268 -229 -325 -283 -74 -72 -100 -92 -92 -72 5 15 21 89 34 165 33
191 102 344 181 398 41 28 42 26 14 -28 -11 -22 -18 -46 -16 -52 2 -6 20 20
40 58 32 62 71 104 83 92 2 -2 -12 -23 -32 -46 -20 -23 -34 -45 -30 -48 9 -10
46 27 82 84 19 28 39 55 45 58 21 14 19 -3 -6 -39 -14 -20 -25 -42 -25 -49 0
-7 -13 -44 -30 -83 -32 -76 -49 -154 -33 -154 13 0 25 28 58 135 37 124 90
221 134 250 20 12 38 21 39 20 2 -2 -15 -29 -38 -59 -24 -31 -41 -59 -38 -62
6 -6 158 154 158 167 0 4 14 16 31 25 31 16 31 14 -16 -45 -74 -94 -46 -84 37
14 62 73 143 142 171 144 4 1 -22 -41 -58 -92z m-3189 1 c36 -25 44 -37 44
-62 l0 -31 -41 48 c-31 36 -44 45 -54 37 -9 -8 -14 -6 -19 6 -17 45 10 46 70
2z m3354 -308 c-23 -42 -122 -194 -115 -175 4 11 10 43 12 72 4 37 12 58 29
74 20 18 24 20 24 6 0 -9 -8 -20 -17 -26 -10 -5 -15 -12 -12 -15 12 -13 36 6
58 44 22 40 41 58 21 20z m-155 -47 c-33 -30 -85 -73 -115 -96 -30 -22 -71
-55 -90 -73 -42 -39 -121 -66 -181 -62 l-43 3 159 127 c143 114 164 128 200
129 22 0 58 6 80 14 22 7 42 13 45 14 3 0 -22 -25 -55 -56z m-679 -15 c-25
-36 -75 -147 -91 -203 -7 -27 -19 -90 -25 -139 -12 -86 -20 -106 -98 -251 -9
-16 -48 -66 -87 -110 -38 -44 -83 -96 -98 -115 l-28 -35 12 30 c6 17 15 116
19 220 5 105 13 205 19 224 11 37 6 55 -9 31 -16 -26 -30 -109 -41 -239 -5
-69 -12 -142 -15 -161 -7 -46 -44 -163 -55 -175 -5 -5 -9 -18 -9 -28 0 -10
-22 -63 -49 -118 l-50 -98 -7 57 c-10 82 -9 462 2 494 6 19 9 -18 10 -120 0
-92 5 -154 12 -167 9 -16 11 15 12 146 0 160 12 274 31 293 20 21 21 -9 4 -99
-19 -100 -17 -198 5 -232 9 -14 10 -5 6 47 -2 36 0 101 5 146 9 86 41 199 52
188 3 -4 9 1 13 10 3 9 10 13 15 10 5 -3 9 7 9 21 0 15 4 24 10 20 6 -3 10 4
10 18 0 13 13 36 30 52 l30 29 1 -85 c1 -97 13 -75 24 44 5 56 11 76 26 85 10
7 19 10 19 8 0 -2 -5 -27 -10 -56 -10 -55 -6 -90 11 -90 6 0 7 5 4 10 -10 17
16 153 33 173 21 23 32 21 31 -5 0 -21 -1 -21 -8 -4 -13 34 -24 -2 -22 -73 4
-107 24 -94 36 21 3 39 11 80 16 92 6 14 7 3 3 -36 -4 -34 -2 -58 3 -58 5 0
24 36 42 80 30 72 39 84 95 124 71 52 74 54 52 24z m711 -50 c-3 -7 -5 -2 -5
12 0 14 2 19 5 13 2 -7 2 -19 0 -25z m-39 -59 c-10 -57 -45 -156 -57 -163 -4
-3 1 20 11 50 10 30 21 76 24 102 7 61 12 74 23 68 5 -3 4 -28 -1 -57z m-43
-16 c-9 -52 -56 -196 -61 -191 -2 3 5 31 16 63 11 32 20 77 20 100 0 35 13 65
28 65 2 0 1 -17 -3 -37z m-48 -56 c-6 -46 -59 -183 -77 -201 -6 -6 -2 9 9 34
11 25 23 74 27 110 6 55 24 100 42 100 3 0 2 -19 -1 -43z m-60 -61 c-6 -45
-46 -160 -53 -153 -10 10 17 162 33 179 24 26 26 23 20 -26z m-171 -36 c-23
-25 -70 -81 -106 -125 -35 -44 -89 -109 -120 -145 -126 -147 -131 -153 -142
-231 -13 -84 -28 -103 -108 -134 -119 -46 -404 -301 -469 -420 -18 -33 -30
-53 -27 -45 7 22 91 229 111 275 17 40 104 195 109 195 2 0 1 -11 -2 -25 -7
-39 13 -29 34 16 29 65 59 88 66 52 3 -14 9 -9 23 17 18 32 20 33 23 13 5 -32
16 -29 38 13 10 19 40 49 66 65 25 17 52 37 59 45 18 21 2 30 -19 11 -20 -18
-32 -22 -32 -9 0 4 25 23 55 41 30 19 55 41 55 48 0 20 -11 16 -95 -37 -44
-27 -88 -50 -99 -50 -17 0 -14 7 19 43 132 141 181 187 202 187 34 0 124 37
158 65 40 33 17 31 -53 -4 -31 -15 -68 -32 -82 -36 -22 -6 -19 -1 20 40 25 26
79 77 120 114 l75 67 82 -1 81 0 -42 -45z m91 -57 c-3 -10 -5 -2 -5 17 0 19 2
27 5 18 2 -10 2 -26 0 -35z m-42 -90 c-10 -48 -22 -92 -27 -98 -7 -7 -8 -3 -4
10 13 45 23 118 19 136 -5 18 15 55 24 45 3 -3 -3 -44 -12 -93z m-1755 -45
c12 -47 38 -71 27 -25 -26 106 -18 114 27 27 37 -70 74 -194 96 -319 27 -154
24 -167 -9 -41 -41 155 -74 256 -78 243 -3 -7 5 -45 16 -85 11 -40 31 -129 46
-198 14 -69 32 -144 41 -167 8 -23 14 -53 12 -65 -6 -41 -47 54 -79 186 -17
66 -36 127 -44 135 -12 12 -16 8 -26 -33 l-12 -47 -51 77 -52 77 23 66 c14 42
23 90 23 132 0 37 3 82 7 100 7 38 7 39 33 -63z m1709 10 l-13 -63 -8 38 c-6
30 -4 46 9 68 24 41 28 29 12 -43z m-862 30 c-3 -8 -6 -5 -6 6 -1 11 2 17 5
13 3 -3 4 -12 1 -19z m947 -23 c-9 -14 -18 -25 -21 -25 -5 0 5 18 20 38 17 22
18 13 1 -13z m-155 -164 c-27 -64 -53 -90 -33 -34 7 21 13 60 14 86 0 28 7 59
18 75 l17 26 3 -51 c2 -36 -3 -67 -19 -102z m-50 17 c-5 -29 -14 -73 -22 -97
l-13 -45 3 78 c1 57 6 83 19 97 9 11 18 19 19 19 1 0 -2 -24 -6 -52z m-59 -95
c-11 -68 -32 -133 -44 -133 -2 0 2 21 10 47 8 25 14 66 14 90 0 39 18 88 29
78 2 -3 -2 -39 -9 -82z m-58 -83 l-10 -55 -1 62 c-1 66 11 121 17 73 1 -14 -1
-50 -6 -80z m-384 9 c-26 -45 -70 -80 -47 -37 21 40 50 78 60 78 5 0 -1 -18
-13 -41z m38 4 c-8 -15 -15 -25 -16 -21 0 12 23 58 27 54 3 -2 -2 -17 -11 -33z
m1900 2 c-37 -48 -8 -47 31 1 l29 36 274 -8 275 -7 -70 -19 c-38 -10 -139 -32
-223 -49 -207 -40 -254 -59 -292 -113 -30 -45 -39 -50 -195 -108 -83 -30 -274
-82 -281 -76 -2 2 32 59 76 127 72 112 101 174 87 188 -3 3 -12 -10 -20 -28
-8 -19 -47 -83 -87 -144 -40 -60 -76 -120 -81 -132 -9 -23 -46 -37 -143 -53
-109 -18 -151 -51 -208 -164 -33 -66 -59 -99 -143 -181 -85 -84 -105 -109
-119 -153 -16 -48 -48 -92 -67 -92 -4 0 3 33 17 73 13 39 40 151 60 247 19 96
46 209 60 250 38 110 37 107 20 86 -22 -27 -71 -182 -101 -316 -29 -127 -109
-377 -130 -400 -7 -8 -26 -44 -42 -81 -19 -41 -44 -76 -68 -96 -47 -39 -239
-146 -243 -135 -5 16 256 688 264 679 1 -1 -9 -40 -23 -87 -13 -47 -27 -112
-29 -145 -4 -55 -2 -51 21 45 14 58 34 131 44 163 11 32 18 63 15 70 -5 15 80
166 139 246 50 69 140 159 201 200 49 34 214 116 220 110 7 -8 -112 -357 -143
-418 -34 -66 -34 -93 0 -51 36 44 67 122 110 270 61 213 60 211 144 232 81 21
234 44 353 53 l84 7 -67 -87 c-36 -48 -64 -90 -61 -93 7 -6 60 52 113 125 36
49 41 53 81 53 l43 0 -46 -65 c-34 -47 -42 -65 -31 -65 9 0 39 32 67 70 44 60
56 70 81 70 l30 0 -26 -35z m-1606 -64 c-6 -39 -15 -73 -19 -76 -11 -6 -2 94
11 128 17 45 21 23 8 -52z m2475 39 c-3 -5 -13 -10 -21 -10 -8 0 -12 5 -9 10
3 6 13 10 21 10 8 0 12 -4 9 -10z m-67 -16 c-9 -9 -22 -14 -30 -11 -8 3 -4 8
12 15 35 15 37 14 18 -4z m-181 -15 c-27 -10 -54 -16 -60 -12 -7 4 7 12 33 19
68 18 81 15 27 -7z m113 -14 c-7 -9 -15 -13 -18 -10 -3 2 1 11 8 20 7 9 15 13
18 10 3 -2 -1 -11 -8 -20z m-3690 -77 c4 -21 7 -38 5 -38 -10 0 -39 59 -37 78
3 37 16 51 20 22 2 -14 7 -42 12 -62z m3500 72 c0 -16 -44 -30 -52 -16 -4 6 2
14 15 18 33 9 37 9 37 -2z m290 1 c0 -12 -20 -25 -27 -18 -7 7 6 27 18 27 5 0
9 -4 9 -9z m-2390 -5 c0 -3 -4 -8 -10 -11 -5 -3 -10 -1 -10 4 0 6 5 11 10 11
6 0 10 -2 10 -4z m2200 -17 c-7 -11 -14 -18 -17 -15 -3 3 0 12 7 21 18 21 23
19 10 -6z m-172 -1 c-3 -7 -39 -22 -82 -33 l-77 -21 -38 -66 c-45 -81 -59 -98
-32 -38 21 47 27 90 12 90 -4 0 -16 -21 -26 -46 -16 -43 -64 -134 -70 -134 -1
0 4 24 13 54 9 34 12 64 7 82 -8 27 -9 26 -21 -25 -21 -88 -43 -138 -71 -156
-26 -17 -26 -17 -19 6 27 90 34 159 16 159 -5 0 -10 -18 -10 -40 0 -43 -23
-110 -52 -152 -28 -41 -39 -34 -17 9 19 38 24 69 13 97 -11 28 -23 17 -18 -16
6 -43 -50 -146 -94 -171 l-32 -19 20 46 c27 61 41 136 26 136 -7 0 -18 -22
-25 -49 -18 -70 -66 -167 -86 -175 -25 -9 -27 -5 -11 45 19 60 27 119 15 119
-5 0 -9 -5 -9 -11 0 -6 -12 -50 -26 -97 -24 -77 -59 -132 -84 -132 -5 0 0 26
10 58 22 73 34 152 22 152 -5 0 -18 -35 -30 -77 -27 -103 -56 -169 -80 -182
-18 -9 -17 -5 5 72 13 45 22 96 21 112 -3 28 -4 27 -16 -15 -49 -173 -78 -240
-103 -240 -5 0 -4 11 0 24 18 46 31 139 25 177 -10 60 -19 46 -19 -29 -1 -96
-36 -204 -77 -236 -18 -14 -33 -24 -35 -23 -1 2 4 25 12 52 16 55 45 238 39
244 -8 9 -13 -8 -39 -134 -28 -135 -49 -200 -72 -225 -9 -10 -8 2 5 41 30 84
35 134 22 189 -15 65 -31 65 -23 0 10 -88 -42 -269 -90 -309 -21 -16 -21 -13
-3 30 24 56 36 150 27 193 -17 70 -26 57 -27 -37 0 -102 -27 -191 -70 -234
-13 -13 -19 -23 -14 -23 5 0 -5 -25 -22 -55 -18 -30 -33 -53 -35 -52 -1 2 8
37 21 79 13 42 27 96 31 120 4 24 16 62 27 85 23 49 39 201 20 189 -7 -4 -12
-25 -12 -46 0 -24 -6 -42 -15 -47 -9 -6 -24 -52 -39 -123 -25 -117 -59 -234
-51 -175 2 17 7 57 10 90 3 33 13 74 21 92 8 17 16 67 19 110 7 94 -9 71 -20
-30 -7 -66 -25 -103 -25 -52 0 15 -4 24 -10 20 -6 -4 -10 13 -10 42 0 43 4 53
36 84 20 18 63 72 96 119 33 47 72 95 87 107 30 26 129 58 316 102 118 28 259
74 357 117 21 10 48 34 63 56 34 51 83 71 259 108 164 33 169 34 164 18z m285
-10 c-13 -12 -25 -19 -28 -16 -8 7 23 38 38 38 6 0 2 -10 -10 -22z m-164 -5
c-18 -24 -31 -33 -46 -33 -19 0 -3 31 21 40 33 14 40 11 25 -7z m101 -13 c-6
-11 -13 -20 -16 -20 -2 0 0 9 6 20 6 11 13 20 16 20 2 0 0 -9 -6 -20z m-200
-31 c-12 -16 -24 -28 -26 -26 -9 9 20 57 33 57 11 0 9 -8 -7 -31z m-61 -19
c-12 -21 -29 -42 -36 -45 -8 -3 -13 -2 -11 2 3 5 10 22 17 40 7 17 20 34 29
36 9 3 18 5 20 6 2 0 -7 -17 -19 -39z m-2102 -2 c-3 -7 -5 -2 -5 12 0 14 2 19
5 13 2 -7 2 -19 0 -25z m2267 7 c-9 -14 -18 -25 -20 -25 -2 0 2 11 8 25 6 14
15 25 20 25 5 0 1 -11 -8 -25z m-225 -19 c-24 -41 -65 -86 -78 -86 -5 0 2 27
16 60 23 53 30 60 54 60 l28 0 -20 -34z m165 -2 c-9 -14 -31 -32 -47 -41 l-30
-15 22 28 c18 24 55 52 69 54 1 0 -5 -11 -14 -26z m-2243 -11 c-12 -20 -14
-14 -5 12 4 9 9 14 11 11 3 -2 0 -13 -6 -23z m-49 -35 c-8 -8 -9 -4 -5 13 4
13 8 18 11 10 2 -7 -1 -18 -6 -23z m-22 14 c0 -5 -7 -17 -16 -28 -8 -10 -14
-14 -11 -9 2 6 7 18 10 28 7 17 17 23 17 9z m2203 -27 c-3 -9 -8 -14 -10 -11
-3 3 -2 9 2 15 9 16 15 13 8 -4z m-2263 -25 c-6 -11 -15 -20 -21 -20 -6 0 -6
7 1 20 6 11 15 20 21 20 6 0 6 -7 -1 -20z m2200 7 c0 -2 -12 -14 -26 -28 l-27
-24 18 28 c14 22 35 36 35 24z m-3323 -89 c-2 -13 -4 -5 -4 17 -1 22 1 32 4
23 2 -10 2 -28 0 -40z m1063 47 c0 -2 -10 -10 -22 -16 -21 -11 -22 -11 -9 4
13 16 31 23 31 12z m2153 -30 c-10 -13 -22 -25 -26 -25 -4 0 0 11 10 25 10 13
22 25 26 25 4 0 0 -11 -10 -25z m-209 -130 c-20 -25 -38 -45 -40 -45 -11 0 29
61 48 74 34 24 33 20 -8 -29z m-73 -32 c-12 -23 -85 -103 -75 -83 9 19 74 100
80 100 3 0 0 -8 -5 -17z m-131 -107 c-50 -67 -61 -73 -23 -13 34 53 55 78 61
73 2 -3 -15 -30 -38 -60z m-80 -48 c-54 -82 -58 -85 -22 -11 27 51 37 65 59
72 2 1 -15 -27 -37 -61z m-2063 0 c-3 -8 -6 -5 -6 6 -1 11 2 17 5 13 3 -3 4
-12 1 -19z m2008 -15 c-24 -38 -97 -133 -101 -133 -11 0 62 118 85 137 34 30
37 29 16 -4z m-2028 -55 c-3 -8 -6 -5 -6 6 -1 11 2 17 5 13 3 -3 4 -12 1 -19z
m1907 -33 c-9 -14 -18 -25 -20 -25 -2 0 2 11 8 25 6 14 15 25 20 25 5 0 1 -11
-8 -25z m-1917 -7 c-3 -8 -6 -5 -6 6 -1 11 2 17 5 13 3 -3 4 -12 1 -19z m-10
-40 c-3 -8 -6 -5 -6 6 -1 11 2 17 5 13 3 -3 4 -12 1 -19z m1404 -53 c-7 -46
-10 -55 -16 -38 -10 31 -25 19 -26 -20 0 -26 -2 -28 -8 -12 -25 63 -23 76 16
112 20 20 38 32 40 27 2 -5 -1 -36 -6 -69z m447 34 c-30 -53 -58 -78 -33 -29
17 34 44 70 52 70 2 0 -6 -18 -19 -41z m-102 -94 c-20 -30 -38 -55 -41 -55 -9
0 29 75 49 97 35 40 30 15 -8 -42z m-314 -33 c-4 -103 -30 -208 -73 -301 -22
-46 -41 -82 -43 -80 -3 2 11 67 30 144 18 77 34 157 34 178 0 24 5 40 15 43 8
3 17 26 21 50 9 64 19 45 16 -34z m-119 -259 c-11 -56 -40 -130 -48 -121 -2 2
3 30 12 63 9 37 16 113 17 200 1 77 7 151 12 165 15 41 21 -232 7 -307z m352
226 c-13 -28 -29 -56 -35 -63 -7 -6 2 17 19 52 38 75 50 83 16 11z m-388 -136
c-6 -142 -25 -226 -58 -257 -19 -19 -21 -19 -15 -3 3 11 9 30 12 43 3 13 10
24 15 24 27 0 43 196 20 254 -10 24 -9 32 5 47 10 11 19 19 22 19 3 0 2 -57
-1 -127z m288 43 c-20 -36 -39 -66 -41 -66 -2 0 12 32 32 71 19 39 38 69 41
66 2 -3 -12 -35 -32 -71z m-334 -2 c10 -46 10 -104 0 -104 -5 0 -12 13 -16 30
-4 16 -11 32 -16 35 -10 7 -12 58 -2 69 13 12 28 -1 34 -30z m-62 -84 c-1 -41
-2 -42 -8 -14 -4 17 -11 36 -14 41 -4 6 -4 19 -1 28 11 28 24 -4 23 -55z m-39
-21 c0 -11 -4 -18 -10 -14 -5 3 -7 12 -3 20 7 21 13 19 13 -6z m-23 -96 c-2
-16 -4 -3 -4 27 0 30 2 43 4 28 2 -16 2 -40 0 -55z m30 20 c-3 -10 -5 -2 -5
17 0 19 2 27 5 18 2 -10 2 -26 0 -35z m-60 -233 c-5 -19 -16 -42 -24 -50 -13
-13 -15 -13 -9 5 8 30 26 184 26 227 0 70 -17 39 -25 -44 -12 -140 -45 -291
-61 -276 -8 9 16 122 28 129 9 6 13 40 13 111 0 97 1 104 25 125 l25 21 5
-106 c3 -59 1 -123 -3 -142z m-67 128 c0 -45 -3 -59 -10 -48 -5 8 -10 23 -10
33 0 10 -4 15 -10 12 -6 -4 -10 6 -10 24 0 26 9 38 33 40 4 1 7 -27 7 -61z
m-63 -283 c-5 -27 -15 -57 -21 -66 -9 -13 -10 16 -8 122 3 86 0 157 -7 185
-11 41 -10 48 6 59 17 13 19 6 29 -118 8 -91 8 -148 1 -182z m220 242 c-13
-39 -16 -30 -9 28 4 40 7 45 12 25 4 -14 2 -38 -3 -53z m96 38 c-3 -9 -8 -14
-10 -11 -3 3 -2 9 2 15 9 16 15 13 8 -4z m-378 -50 c11 -72 1 -337 -14 -363
-7 -13 -14 -22 -15 -20 -2 1 1 50 6 108 6 75 5 132 -5 202 -9 66 -10 101 -3
108 18 18 25 11 31 -35z m247 5 c2 -28 -1 -45 -12 -55 -14 -13 -15 -9 -6 40 6
30 11 55 12 55 1 0 4 -18 6 -40z m59 -38 c-11 -23 -26 -44 -31 -47 -12 -8 14
61 32 82 20 25 20 6 -1 -35z m-360 -144 c-1 -176 -8 -265 -22 -274 -5 -3 -9
27 -9 65 0 47 4 71 11 71 17 0 5 180 -15 245 -15 46 -14 51 1 63 10 7 21 8 26
3 5 -5 9 -83 8 -173z m-51 46 c5 -38 10 -80 9 -94 0 -25 0 -25 -17 5 -9 17
-26 58 -38 93 l-21 63 21 15 c27 18 33 8 46 -82z m330 7 c-11 -23 -23 -41 -25
-41 -10 0 8 55 23 73 24 27 25 13 2 -32z m-385 -97 c14 -70 26 -131 26 -134 1
-3 5 13 9 35 5 28 8 8 8 -70 1 -60 -2 -116 -7 -123 -4 -8 -6 20 -3 62 6 102
-13 100 -24 -1 l-8 -78 -6 128 c-4 71 -11 132 -17 135 -8 6 -43 124 -43 146 0
8 32 37 37 33 2 -2 15 -62 28 -133z m-31 -254 c1 -63 -3 -124 -8 -135 -8 -19
-9 -18 -16 7 -5 15 -4 44 1 65 12 51 11 153 -1 153 -5 0 -10 -26 -12 -57 l-3
-58 -8 60 c-8 66 -24 153 -36 200 -6 22 -3 40 13 68 l20 38 25 -113 c19 -84
25 -143 25 -228z m337 253 c-20 -35 -21 -36 -15 -8 9 40 26 73 31 58 2 -6 -5
-29 -16 -50z m-58 -48 c-3 -9 -8 -14 -10 -11 -3 3 -2 9 2 15 9 16 15 13 8 -4z
m-369 -41 c3 -26 6 -71 6 -100 0 -29 5 -54 10 -56 11 -3 32 -192 23 -214 -11
-30 -20 -11 -26 54 -7 74 -33 172 -46 172 -5 0 -2 -21 6 -47 8 -27 17 -97 19
-158 4 -114 -3 -114 -26 -2 -6 31 -16 57 -22 57 -5 0 -8 -7 -4 -15 14 -38 28
-183 18 -200 -8 -15 -12 -9 -26 39 -22 74 -31 66 -15 -13 9 -48 9 -67 -1 -91
-14 -34 -30 -40 -30 -11 0 11 -4 21 -9 23 -9 3 29 305 53 423 19 97 46 185 55
185 5 0 11 -21 15 -46z m299 -64 c-3 -12 -8 -19 -11 -16 -5 6 5 36 12 36 2 0
2 -9 -1 -20z m-156 -232 c-3 -8 -6 -5 -6 6 -1 11 2 17 5 13 3 -3 4 -12 1 -19z
m-77 -98 l-8 -35 -1 31 c-1 17 2 34 6 37 11 12 12 3 3 -33z m-531 -15 c0 -5
-6 -1 -14 9 -8 10 -11 24 -8 29 6 10 21 -16 22 -38z m492 -41 c-5 -16 -10 -21
-10 -12 -1 18 10 51 15 45 2 -1 -1 -16 -5 -33z m-176 -261 c-10 -18 -14 -21
-11 -8 3 11 8 43 13 70 l8 50 3 -42 c2 -25 -3 -53 -13 -70z m56 20 c-12 -20
-14 -14 -5 12 4 9 9 14 11 11 3 -2 0 -13 -6 -23z"/>
<path d="M4114 5628 c-48 -68 -107 -169 -101 -174 5 -5 104 131 126 174 23 43
6 44 -25 0z"/>
<path d="M3226 4909 c-9 -91 -8 -155 3 -143 12 11 23 204 12 204 -5 0 -11 -28
-15 -61z"/>
<path d="M3255 4908 c-7 -57 -2 -83 16 -73 11 7 11 82 0 110 -7 15 -10 6 -16
-37z"/>
<path d="M4812 4602 c-28 -43 -78 -104 -112 -135 -38 -35 -55 -57 -45 -57 28
0 148 130 184 198 18 35 31 65 29 68 -3 2 -28 -31 -56 -74z"/>
<path d="M4147 4060 c-27 -87 -50 -183 -61 -255 -10 -64 10 -19 28 65 9 41 28
112 42 158 14 46 23 91 21 100 -2 9 -15 -21 -30 -68z"/>
<path d="M4166 4009 c-36 -107 -60 -262 -37 -229 6 8 11 24 11 36 0 22 24 119
59 237 32 110 6 76 -33 -44z"/>
<path d="M2050 5376 c0 -123 3 -231 6 -240 17 -44 24 -2 25 142 1 86 3 149 6
140 9 -36 21 -16 25 45 3 34 9 70 13 81 6 14 5 18 -6 14 -8 -2 -19 -19 -24
-36 -18 -53 -25 -48 -25 16 0 35 -4 62 -10 62 -6 0 -10 -81 -10 -224z"/>
<path d="M2146 5519 c-2 -8 -9 -29 -15 -48 -13 -41 -14 -118 -2 -125 9 -6 35
173 27 182 -3 3 -7 -1 -10 -9z"/>
<path d="M2177 5477 c-23 -61 -32 -235 -11 -214 5 4 32 187 34 220 0 12 -18 8
-23 -6z"/>
<path d="M2226 5432 c-15 -24 -36 -132 -36 -184 0 -76 17 -83 24 -11 4 32 12
88 18 126 10 62 8 91 -6 69z"/>
<path d="M2252 5348 c-18 -71 -25 -145 -18 -183 12 -60 23 -31 29 77 4 57 9
113 13 126 4 12 2 22 -4 22 -5 0 -14 -19 -20 -42z"/>
<path d="M1510 5033 c0 -32 144 -222 158 -209 2 3 -19 33 -47 67 -28 34 -63
81 -77 105 -25 42 -34 52 -34 37z"/>
<path d="M3265 1114 c-3 -20 -4 -39 0 -42 9 -9 25 19 25 45 0 37 -17 35 -25
-3z"/>
</g>
</svg>
