<?xml version="1.0" standalone="no"?>
<!DOCTYPE svg PUBLIC "-//W3C//DTD SVG 20010904//EN"
 "http://www.w3.org/TR/2001/REC-SVG-20010904/DTD/svg10.dtd">
<svg version="1.0" xmlns="http://www.w3.org/2000/svg"
 width="300.000000pt" height="300.000000pt" viewBox="0 0 300.000000 300.000000"
 preserveAspectRatio="xMidYMid meet">
<metadata>
Created by potrace 1.14, written by Peter Selinger 2001-2017
</metadata>
<g transform="translate(0.000000,300.000000) scale(0.100000,-0.100000)"
fill="#000000" stroke="none">
<path d="M190 2762 c0 -5 33 -59 74 -121 62 -93 77 -125 92 -189 25 -107 50
-160 88 -179 68 -34 97 -65 130 -137 42 -91 81 -135 150 -169 34 -17 60 -37
68 -54 9 -20 31 -35 74 -53 34 -14 69 -33 78 -43 10 -9 39 -31 64 -49 59 -40
61 -43 122 -159 79 -152 130 -297 193 -549 l41 -165 -1 -305 c0 -168 -3 -331
-5 -363 -3 -40 -1 -57 7 -57 16 0 19 90 19 455 l-1 280 -36 150 c-38 154 -93
330 -128 412 -11 25 -17 48 -15 51 3 3 10 -7 15 -21 18 -46 45 -42 61 9 9 28
9 28 6 -6 -3 -19 -7 -48 -11 -65 -4 -19 1 -51 14 -89 12 -32 18 -62 15 -67 -3
-5 0 -9 6 -9 7 0 10 -7 6 -15 -3 -8 0 -15 6 -15 6 0 8 -3 5 -7 -4 -3 -2 -12 4
-20 6 -7 8 -13 3 -13 -5 0 -3 -4 4 -9 8 -4 15 -30 16 -57 4 -63 3 -60 23 -79
14 -14 14 -18 2 -26 -11 -7 -10 -9 5 -9 15 0 16 -3 7 -14 -9 -11 -8 -15 5 -20
12 -4 15 -15 12 -36 -3 -17 0 -30 5 -30 5 0 7 -6 4 -14 -3 -7 0 -19 6 -25 8
-8 6 -11 -8 -11 -16 0 -13 -5 12 -22 33 -23 42 -38 22 -38 -5 0 -7 -5 -4 -10
3 -6 0 -10 -9 -10 -15 0 -16 -16 -3 -37 5 -8 3 -13 -4 -13 -8 0 -8 -4 1 -15
10 -12 10 -15 0 -15 -10 0 -10 -3 -1 -14 9 -11 9 -15 -1 -19 -10 -4 -10 -7 1
-15 10 -7 10 -11 1 -17 -9 -6 -9 -10 1 -16 12 -8 11 -11 -1 -20 -11 -8 -12
-12 -2 -16 17 -7 15 -23 -3 -23 -12 0 -13 -4 -6 -18 10 -18 7 -243 -4 -338 -5
-43 -3 -53 11 -58 9 -4 18 -5 19 -4 1 2 6 82 9 178 4 96 9 191 10 210 2 19 7
67 10 107 15 160 74 298 204 473 181 244 304 372 489 511 256 191 354 247 576
324 175 62 160 67 -211 68 -314 0 -381 -3 -477 -28 -189 -49 -296 -171 -415
-475 -22 -57 -40 -110 -40 -117 0 -7 -15 -27 -34 -44 -50 -45 -64 -89 -70
-225 -9 -186 -37 -313 -51 -229 -13 81 -29 144 -81 320 -56 188 -64 247 -43
335 6 25 12 54 15 64 10 52 39 123 56 143 11 12 59 41 107 64 114 55 138 74
223 177 40 48 95 111 123 140 66 70 120 152 198 303 77 147 112 227 103 236
-3 4 -57 -27 -119 -69 -61 -41 -186 -123 -275 -182 -90 -59 -162 -110 -159
-112 3 -3 -1 -22 -10 -42 -15 -37 -17 -45 -27 -106 -8 -47 -47 -121 -89 -168
l-34 -37 4 92 c3 50 2 90 0 87 -7 -7 -17 -66 -21 -125 -3 -51 -35 -146 -60
-180 -12 -17 -14 -6 -13 85 0 86 1 95 7 50 l7 -55 2 45 c2 35 4 41 11 25 6
-14 8 -4 8 35 -1 49 -1 51 -8 20 l-7 -35 -1 35 c0 19 3 44 8 55 6 16 10 8 15
-33 9 -60 12 -61 21 -8 4 26 2 36 -5 31 -19 -11 -12 14 15 61 27 47 40 56 31
25 -2 -10 -1 -25 4 -32 6 -10 9 -5 10 16 0 17 5 39 10 50 9 19 9 18 5 -2 -2
-13 0 -26 5 -29 5 -3 10 10 10 28 l2 33 6 -35 c4 -23 9 -31 14 -22 5 6 5 12 2
12 -4 0 3 12 14 26 12 15 21 31 21 37 0 6 10 21 22 34 18 19 19 23 5 23 -9 0
-18 -4 -21 -9 -3 -5 -30 -23 -60 -40 -58 -32 -109 -88 -147 -161 -22 -41 -24
-58 -26 -205 -1 -110 -7 -177 -17 -215 -9 -30 -18 -66 -21 -80 -3 -14 -11 -44
-18 -68 -16 -53 -20 -49 -70 68 -45 107 -45 103 -52 235 -9 164 -23 228 -75
340 -33 73 -125 203 -176 247 -112 100 -265 178 -438 223 -66 17 -126 41 -177
70 -82 47 -89 50 -89 37z m116 -77 c26 -14 65 -30 86 -37 21 -6 38 -14 38 -18
0 -3 7 -15 16 -26 14 -18 15 -18 4 4 -9 19 -8 22 9 22 53 0 244 -84 342 -151
65 -44 167 -152 175 -186 4 -13 10 -23 15 -23 16 0 69 -103 95 -185 32 -102
47 -244 24 -240 -8 1 -21 21 -29 46 -31 98 -33 102 -44 84 -8 -15 -11 -13 -28
13 -14 25 -16 38 -8 64 5 18 9 46 10 63 0 28 1 28 9 8 5 -13 12 -23 15 -23 4
0 4 10 0 23 -9 35 26 -31 42 -78 l13 -40 -6 40 c-3 22 -19 64 -35 93 -16 28
-27 52 -24 52 3 0 -3 9 -13 20 -17 20 -17 20 -23 -17 -4 -21 -3 -45 1 -54 8
-14 -2 -84 -13 -95 -2 -3 -29 28 -60 68 -31 40 -69 89 -86 108 -30 37 -44 76
-25 73 6 -1 10 9 8 22 -1 14 2 25 6 25 9 0 5 38 -5 48 -2 3 1 12 7 20 10 12 5
20 -27 48 -22 18 -41 32 -42 30 -2 -2 3 -38 12 -82 28 -154 31 -146 -30 -79
-52 56 -70 85 -42 69 8 -5 8 -2 -2 9 -11 14 -11 17 0 17 9 0 10 3 4 8 -5 4
-10 16 -9 27 0 11 -4 26 -9 33 -5 6 -6 12 -2 12 10 0 -15 29 -34 40 -13 7 -16
1 -16 -36 0 -24 3 -44 8 -44 4 0 6 -3 5 -7 -1 -5 3 -18 10 -31 11 -19 4 -17
-39 14 -55 40 -86 81 -96 127 -3 15 -9 30 -13 32 -8 5 2 -46 16 -79 6 -15 4
-17 -7 -11 -8 5 -31 10 -53 11 -21 1 -43 8 -48 16 -6 8 -7 1 -3 -22 11 -59 25
-98 42 -112 15 -12 15 -11 0 12 -16 25 -36 111 -23 98 7 -6 13 -29 15 -54 1
-5 8 -19 16 -30 14 -18 14 -17 5 9 -5 16 -9 38 -9 50 1 20 2 21 6 2 10 -38 24
-68 29 -62 3 3 1 15 -6 26 -6 12 -7 21 -2 21 6 0 12 -10 15 -22 5 -18 8 -19
21 -8 11 8 16 9 16 1 0 -6 7 -11 16 -11 8 0 12 5 8 11 -11 19 27 -6 71 -45
l40 -36 -32 4 c-18 2 -33 1 -33 -4 0 -4 20 -10 45 -13 31 -5 54 -15 70 -33 26
-28 32 -44 15 -44 -5 0 -10 6 -10 13 0 8 -4 7 -10 -3 -6 -10 -10 -11 -10 -2 0
6 -5 12 -11 12 -5 0 -7 -4 -4 -10 11 -17 -7 -11 -21 8 -13 16 -14 16 -7 -3 6
-18 5 -19 -12 -5 -11 9 -16 10 -11 3 4 -7 2 -13 -3 -13 -6 0 -11 3 -11 8 0 4
-11 8 -24 8 l-24 2 21 -37 c23 -40 37 -52 49 -45 4 3 8 0 8 -7 0 -7 3 -10 6
-7 3 4 -2 20 -11 37 -9 17 -11 31 -5 31 5 0 10 -3 10 -7 0 -5 9 -19 20 -33 15
-18 18 -20 13 -6 -5 14 -3 17 6 11 10 -6 11 -2 7 16 -7 23 -7 23 8 5 22 -27
49 -31 36 -5 -12 22 -1 25 19 7 11 -11 13 -10 7 2 -4 8 15 -10 43 -40 56 -61
61 -75 29 -77 -13 -1 -35 -3 -49 -6 -15 -2 -53 4 -85 14 -32 10 -60 16 -62 14
-3 -2 7 -7 20 -10 15 -4 29 -18 36 -37 16 -43 9 -46 -17 -6 -11 18 -21 28 -21
21 0 -6 11 -25 25 -41 24 -29 60 -36 73 -15 4 5 15 9 24 8 9 -2 19 3 21 9 3 7
-1 13 -9 13 -8 0 -14 -5 -14 -11 0 -6 -5 -4 -10 4 -8 13 -10 13 -10 1 0 -11
-4 -9 -15 5 -8 10 -15 14 -15 7 0 -6 5 -15 10 -18 6 -3 10 -12 10 -18 -1 -15
-50 40 -50 55 0 7 4 7 13 1 6 -6 25 -9 40 -8 15 1 30 -2 33 -6 2 -4 13 -6 24
-4 12 2 18 0 15 -5 -10 -16 28 -4 40 13 10 15 16 11 44 -28 18 -25 29 -49 26
-55 -9 -15 -75 -13 -75 3 0 8 -4 7 -10 -3 -6 -9 -10 -11 -10 -3 0 7 -7 10 -16
6 -9 -3 -12 -9 -6 -12 5 -3 14 -15 21 -26 10 -16 11 -17 7 -2 -3 11 -2 15 4
12 6 -3 10 -16 10 -28 0 -12 4 -17 8 -12 10 14 32 17 32 5 0 -6 -5 -10 -11
-10 -6 0 -3 -7 6 -16 13 -14 18 -14 32 -2 10 7 14 8 10 1 -4 -6 -3 -14 3 -18
5 -3 10 -1 10 5 0 6 5 8 10 5 6 -3 10 -14 10 -24 0 -10 7 -18 15 -18 8 0 13 3
11 6 -2 3 0 15 5 26 5 14 8 2 8 -38 1 -37 5 -56 11 -52 6 4 16 -8 22 -27 l12
-33 7 30 7 30 1 -29 c0 -16 9 -36 19 -45 19 -17 56 -89 67 -131 3 -14 -8 0
-25 30 -17 31 -41 67 -53 81 -37 41 -138 119 -176 135 -19 8 -47 29 -62 47
-14 18 -44 38 -65 46 -84 30 -119 64 -154 151 -24 59 -42 89 -67 108 -89 69
-123 108 -151 177 -17 39 -33 85 -37 102 -3 18 -28 65 -54 105 -61 95 -63 98
-57 98 3 0 26 -11 52 -25z m1749 -152 c-50 -91 -101 -152 -141 -169 -48 -20
-49 -18 -8 24 20 20 57 64 82 97 47 62 93 115 100 115 2 0 -13 -30 -33 -67z
m-84 -2 c-35 -44 -39 -56 -14 -47 13 5 -25 -42 -85 -103 -24 -25 -22 -5 6 49
24 48 102 140 117 140 4 0 -7 -18 -24 -39z m-1313 -30 c-5 -1 -1 -9 9 -17 12
-9 13 -13 5 -14 -8 0 -10 -5 -6 -12 4 -8 3 -10 -2 -5 -5 5 -10 13 -10 18 -1 5
-2 10 -3 12 -2 1 -4 12 -7 25 -3 19 -2 21 10 10 8 -7 10 -15 4 -17z m1217 -48
c-19 -31 -37 -69 -40 -84 -4 -16 -29 -45 -66 -75 -62 -50 -148 -125 -181 -156
-25 -25 -27 -23 -22 20 8 59 33 132 56 163 20 27 47 42 32 18 -4 -8 0 -8 15 0
11 7 21 14 21 17 0 3 -6 2 -12 -2 -8 -4 -10 -3 -5 2 5 5 13 9 17 9 5 0 16 9
25 20 10 13 7 -3 -9 -47 -14 -38 -21 -68 -16 -68 5 0 17 24 26 54 10 30 27 65
38 78 12 13 17 19 13 12 -4 -7 -7 -16 -5 -20 1 -5 -6 -23 -15 -41 -27 -50 -20
-52 12 -4 17 25 28 47 26 51 -2 3 10 21 27 40 27 33 28 33 12 5 -13 -23 -7
-19 28 18 25 26 48 47 51 47 4 0 -9 -26 -28 -57z m-1335 11 c0 -2 -9 0 -20 6
-11 6 -20 13 -20 16 0 2 9 0 20 -6 11 -6 20 -13 20 -16z m274 -55 c-2 -5 -12
-5 -22 -2 -12 5 -10 -1 8 -22 24 -27 24 -27 3 -16 -13 6 -23 15 -24 19 0 4 -2
15 -4 24 -2 12 2 15 13 11 12 -4 10 1 -5 16 -13 12 -23 25 -23 28 0 4 13 -6
30 -22 16 -15 27 -32 24 -36z m-9 -59 c3 -6 -1 -7 -9 -4 -18 7 -21 14 -7 14 6
0 13 -4 16 -10z m1039 -65 c-38 -30 -77 -55 -86 -55 -10 0 -18 -4 -18 -10 0
-5 7 -6 17 -3 9 4 -23 -40 -70 -96 -48 -57 -88 -111 -88 -122 -1 -10 -2 -24
-3 -31 0 -6 -27 -27 -59 -46 -33 -19 -87 -62 -122 -96 -34 -34 -59 -52 -55
-41 28 71 43 97 73 129 19 20 39 36 46 36 6 0 11 6 12 13 0 8 2 8 5 1 5 -11
59 35 59 49 0 3 9 13 20 21 11 8 17 17 14 20 -3 4 -17 -2 -30 -12 -13 -10 -33
-22 -44 -26 -19 -7 -19 -6 1 16 12 13 31 35 44 49 12 15 42 32 66 39 25 7 47
17 51 23 4 7 -1 8 -13 3 -54 -23 -56 -16 -9 27 28 26 56 47 63 47 7 0 11 3 9
8 -3 4 25 31 61 60 46 35 76 52 96 52 27 0 24 -4 -40 -55z m96 28 c0 -5 -5
-15 -10 -23 -8 -12 -10 -11 -10 8 0 12 5 22 10 22 6 0 10 -3 10 -7z m-48 -49
c-3 -19 -7 -22 -13 -12 -8 12 -13 4 -10 -15 1 -5 -4 -5 -10 -1 -9 5 -10 1 -7
-14 4 -12 2 -20 -3 -16 -17 10 -9 38 19 61 15 12 28 22 28 23 1 0 -1 -12 -4
-26z m-1252 -49 c0 -5 -9 1 -20 15 -11 14 -20 30 -20 35 0 6 9 -1 20 -15 11
-14 20 -29 20 -35z m38 20 c-3 -3 -9 2 -12 12 -6 14 -5 15 5 6 7 -7 10 -15 7
-18z m1157 -53 c-3 -3 -5 1 -6 9 0 8 -4 6 -9 -6 -8 -18 -9 -18 -9 6 -1 35 11
45 21 18 5 -12 6 -24 3 -27z m-58 -44 c-3 -7 -5 -2 -5 12 0 14 2 19 5 13 2 -7
2 -19 0 -25z m-14 -18 c3 -11 1 -18 -4 -14 -5 3 -9 12 -9 20 0 20 7 17 13 -6z
m-32 -51 l-10 -24 0 26 c-1 14 2 29 6 33 12 12 14 -9 4 -35z m-25 -16 c-10
-10 -19 5 -10 18 6 11 8 11 12 0 2 -7 1 -15 -2 -18z m-733 -62 c9 -16 17 -35
16 -43 0 -7 -4 -4 -9 7 -5 11 -9 14 -9 8 -2 -22 -17 -14 -29 15 -9 20 -11 21
-8 5 3 -15 0 -20 -10 -16 -19 7 2 52 26 53 3 0 13 -13 23 -29z m684 -3 c-3 -7
-5 -2 -5 12 0 14 2 19 5 13 2 -7 2 -19 0 -25z m20 10 c-3 -8 -6 -5 -6 6 -1 11
2 17 5 13 3 -3 4 -12 1 -19z m646 -5 c-6 -16 -5 -16 11 -4 13 11 45 14 117 14
55 -1 102 -3 105 -5 2 -3 -42 -14 -99 -26 -79 -17 -107 -27 -122 -45 -21 -25
-61 -43 -152 -70 l-53 -16 15 29 c8 16 34 48 56 70 23 23 39 44 35 47 -3 4
-13 -2 -21 -13 -10 -13 -14 -15 -15 -5 0 8 -21 -18 -46 -57 -44 -69 -55 -78
-111 -88 -35 -6 -50 -20 -70 -58 -9 -17 -40 -57 -69 -88 -30 -31 -54 -63 -54
-72 0 -8 -5 -18 -12 -22 -8 -5 -9 -2 -4 12 11 28 47 207 42 211 -2 2 -14 -38
-26 -89 -32 -135 -79 -231 -126 -261 -88 -55 -85 -55 -57 21 14 37 32 87 40
112 20 59 35 74 28 30 l-5 -35 10 30 c6 17 8 41 5 55 -4 18 -3 21 4 11 7 -11
11 -6 16 22 9 44 69 139 116 184 34 31 116 79 124 71 4 -4 -45 -149 -64 -189
l-12 -24 20 23 c12 13 26 41 32 63 7 21 15 36 19 34 11 -7 70 55 86 89 l14 31
-17 -25 c-32 -45 -76 -91 -81 -86 -2 3 1 25 8 50 11 41 15 45 59 56 25 7 84
14 130 16 l83 4 -16 -25 c-23 -35 -6 -31 26 5 30 34 40 38 31 13z m-686 -25
c-3 -8 -6 -5 -6 6 -1 11 2 17 5 13 3 -3 4 -12 1 -19z m-582 -28 c3 -5 1 -10
-4 -10 -6 0 -11 5 -11 10 0 6 2 10 4 10 3 0 8 -4 11 -10z m1447 3 c-12 -2 -20
-8 -17 -13 3 -4 -4 -19 -15 -31 -11 -13 -19 -19 -20 -12 0 6 7 19 16 27 8 9
11 16 5 16 -5 0 -13 -5 -16 -10 -4 -6 -11 -8 -16 -5 -5 4 -14 -6 -20 -22 l-12
-28 -7 25 c-6 25 -6 25 -12 -5 -4 -16 -14 -39 -23 -50 -15 -19 -15 -19 -10 10
l6 30 -15 -32 c-18 -40 -24 -42 -20 -5 4 25 3 24 -6 -4 -5 -17 -16 -37 -24
-44 -13 -10 -14 -6 -10 27 4 37 4 37 -7 8 -17 -48 -32 -75 -40 -75 -5 0 -4 11
1 25 5 14 6 25 1 25 -4 0 -12 -14 -17 -32 -5 -17 -15 -33 -21 -35 -9 -3 -9 5
-2 32 6 20 8 39 6 42 -3 2 -12 -21 -21 -51 -20 -67 -30 -73 -22 -13 l5 42 -17
-52 c-23 -70 -30 -73 -26 -11 l3 53 -7 -46 c-6 -39 -34 -99 -46 -99 -2 0 2 25
10 56 14 64 5 64 -13 1 l-11 -42 -1 37 c-2 57 -16 52 -17 -6 0 -28 -8 -64 -18
-81 -15 -26 -16 -27 -10 -5 11 40 7 82 -10 99 -11 10 -16 11 -16 3 0 -7 5 -12
11 -12 18 0 7 -72 -19 -122 -13 -27 -25 -48 -27 -48 -5 0 19 95 25 100 11 8
18 60 9 60 -5 0 -9 -5 -9 -11 0 -6 -7 -9 -15 -5 -10 3 -15 -1 -15 -14 0 -10
-4 -22 -10 -25 -15 -9 -12 41 3 54 8 6 18 7 22 3 5 -4 5 -2 2 5 -4 6 11 34 33
62 41 52 50 56 165 81 83 18 159 50 180 76 19 23 112 53 160 52 17 -1 16 -1
-3 -5z m68 -3 c0 -5 -5 -10 -11 -10 -5 0 -7 5 -4 10 3 6 8 10 11 10 2 0 4 -4
4 -10z m-69 -33 c-10 -9 -11 -8 -5 6 3 10 9 15 12 12 3 -3 0 -11 -7 -18z m54
3 c-3 -5 -12 -10 -18 -10 -7 0 -6 4 3 10 19 12 23 12 15 0z m-1521 -34 c3 -16
2 -25 -1 -22 -4 4 -9 19 -11 34 -4 35 5 25 12 -12z m1154 -186 c-7 -10 -14
-17 -17 -15 -4 4 18 35 25 35 2 0 -1 -9 -8 -20z m-270 -70 c-3 -20 0 -30 8
-30 13 0 12 -24 -6 -90 -13 -47 -33 -76 -24 -35 3 17 8 38 11 47 11 44 12 67
3 73 -6 4 -8 10 -5 15 3 5 1 12 -5 15 -8 5 -7 11 1 21 17 21 22 17 17 -16z
m-29 -57 c-2 -46 -2 -47 -8 -13 -4 19 -5 41 -3 48 8 24 12 11 11 -35z m71 27
c0 -11 -4 -20 -9 -20 -5 0 -7 9 -4 20 3 11 7 20 9 20 2 0 4 -9 4 -20z m-782
-15 c-3 -3 -9 2 -12 12 -6 14 -5 15 5 6 7 -7 10 -15 7 -18z m16 -31 c3 -8 2
-12 -4 -9 -6 3 -10 10 -10 16 0 14 7 11 14 -7z m673 1 c0 -8 -4 -12 -9 -9 -4
3 -8 9 -8 15 0 5 4 9 8 9 5 0 9 -7 9 -15z m-17 -38 c0 -18 -2 -19 -10 -7 -13
20 -13 43 0 35 6 -3 10 -16 10 -28z m-33 -9 c-3 -8 -6 -5 -6 6 -1 11 2 17 5
13 3 -3 4 -12 1 -19z m68 -30 c-7 -29 -9 -30 -16 -13 -11 28 -10 43 1 25 8
-12 10 -10 10 9 0 13 3 22 6 18 3 -3 3 -21 -1 -39z m-115 -55 c-4 -42 -5 -44
-8 -15 -3 30 2 62 10 62 2 0 1 -21 -2 -47z m-20 7 c0 -5 -4 -10 -10 -10 -5 0
-10 5 -10 10 0 6 5 10 10 10 6 0 10 -4 10 -10z m-28 -40 c3 -16 1 -30 -4 -30
-4 0 -8 14 -8 30 0 17 2 30 4 30 2 0 6 -13 8 -30z m-23 -27 c-1 -53 -6 -49
-11 10 -2 20 0 37 4 37 4 0 8 -21 7 -47z m130 14 c0 -9 -2 -8 -6 1 -2 6 -10 9
-15 6 -7 -4 -8 -2 -4 5 9 13 26 5 25 -12z m-152 -24 c1 -33 0 -35 -7 -13 -11
34 -12 50 -2 50 4 0 8 -17 9 -37z m104 6 c-5 -13 -10 -19 -10 -12 -1 15 10 45
15 40 3 -2 0 -15 -5 -28z m-129 -14 c5 -40 -7 -47 -16 -10 -6 23 -1 45 8 45 2
0 6 -16 8 -35z m105 -7 c-3 -8 -6 -5 -6 6 -1 11 2 17 5 13 3 -3 4 -12 1 -19z
m-122 -50 c12 -78 13 -98 5 -103 -3 -2 -7 16 -9 41 -1 25 -6 57 -11 70 -12 32
-13 57 -1 50 4 -3 12 -29 16 -58z m95 29 c0 -12 -5 -29 -10 -37 -7 -11 -9 -3
-7 27 2 41 17 51 17 10z m-125 -22 c17 -82 17 -140 0 -170 -13 -23 -16 -25
-12 -7 3 12 1 22 -3 22 -5 0 -11 8 -13 18 -2 9 -3 -5 -1 -33 3 -46 3 -47 -7
-17 -14 45 -21 40 -14 -10 7 -44 -17 -115 -28 -86 -8 23 30 258 43 258 4 0 10
-19 13 -42 12 -87 27 -118 27 -55 0 20 -5 39 -11 42 -5 4 -8 12 -6 18 2 7 0
23 -5 36 -5 13 -6 32 -2 43 7 24 11 21 19 -17z m92 -42 c-3 -10 -5 -2 -5 17 0
19 2 27 5 18 2 -10 2 -26 0 -35z m-17 -2 c0 -6 -4 -12 -8 -15 -5 -3 -9 1 -9 9
0 8 4 15 9 15 4 0 8 -4 8 -9z"/>
<path d="M330 2634 c0 -4 6 -12 14 -18 8 -6 40 -31 70 -55 31 -24 58 -42 61
-40 2 3 -30 30 -71 62 -41 32 -74 55 -74 51z"/>
<path d="M488 2373 c7 -3 16 -2 19 1 4 3 -2 6 -13 5 -11 0 -14 -3 -6 -6z"/>
<path d="M553 2363 c9 -2 23 -2 30 0 6 3 -1 5 -18 5 -16 0 -22 -2 -12 -5z"/>
<path d="M890 2320 c-1 -30 -3 -71 -5 -90 -3 -35 13 -83 16 -50 1 8 1 36 0 62
-3 56 14 72 23 23 4 -20 11 -33 17 -30 5 4 9 -3 9 -13 0 -11 7 -25 15 -32 13
-11 15 -6 14 31 0 24 -4 53 -8 64 -7 18 -9 17 -19 -10 -10 -28 -11 -28 -5 11
5 43 -11 70 -24 38 -5 -14 -9 -11 -19 17 l-12 34 -2 -55z m47 -22 c-3 -7 -5
-2 -5 12 0 14 2 19 5 13 2 -7 2 -19 0 -25z m30 -75 c-3 -10 -5 -2 -5 17 0 19
2 27 5 18 2 -10 2 -26 0 -35z"/>
<path d="M1055 2050 c3 -14 13 -59 21 -100 22 -101 34 -119 33 -50 -2 69 -11
114 -24 112 -5 -1 -16 13 -23 31 -8 21 -10 23 -7 7z"/>
<path d="M1785 1713 c-3 -13 -3 -29 1 -35 5 -7 2 -8 -6 -3 -10 6 -12 1 -8 -19
3 -14 1 -26 -3 -26 -5 0 -9 -7 -9 -15 0 -8 5 -15 11 -15 5 0 8 4 5 9 -4 5 -1
11 5 13 6 2 11 23 12 46 1 23 5 42 8 42 4 0 9 6 12 13 3 8 -1 14 -8 14 -8 0
-16 -11 -20 -24z"/>
<path d="M1542 1050 c0 -14 2 -19 5 -12 2 6 2 18 0 25 -3 6 -5 1 -5 -13z"/>
<path d="M1411 454 c0 -11 3 -14 6 -6 3 7 2 16 -1 19 -3 4 -6 -2 -5 -13z"/>
</g>
</svg>
