<?xml version="1.0" standalone="no"?>
<!DOCTYPE svg PUBLIC "-//W3C//DTD SVG 20010904//EN"
 "http://www.w3.org/TR/2001/REC-SVG-20010904/DTD/svg10.dtd">
<svg version="1.0" xmlns="http://www.w3.org/2000/svg"
 width="512.000000pt" height="512.000000pt" viewBox="0 0 512.000000 512.000000"
 preserveAspectRatio="xMidYMid meet">
<metadata>
Created by potrace 1.14, written by Peter Selinger 2001-2017
</metadata>
<g transform="translate(0.000000,512.000000) scale(0.100000,-0.100000)"
fill="#000000" stroke="none">
<path d="M2398 3765 c-2 -2 -17 -6 -33 -9 -68 -13 -80 -17 -141 -45 -36 -17
-67 -37 -70 -45 -3 -9 -10 -14 -14 -11 -5 3 -18 -15 -30 -40 -16 -34 -20 -55
-16 -81 8 -42 56 -98 105 -124 22 -12 29 -19 19 -20 -10 0 -18 -5 -18 -11 0
-5 -4 -8 -9 -4 -8 4 -52 -3 -106 -19 -104 -29 -136 -40 -141 -47 -3 -5 -14 -9
-25 -9 -10 0 -19 -4 -19 -8 0 -4 -10 -9 -22 -9 -13 -1 -24 -7 -26 -13 -2 -5
-8 -8 -13 -4 -5 3 -9 0 -9 -6 0 -6 -4 -8 -10 -5 -5 3 -10 1 -10 -6 0 -7 -3 -9
-6 -6 -4 4 -19 -2 -33 -12 -30 -20 -89 -45 -111 -47 -8 0 -22 -3 -30 -7 -20
-7 -154 -51 -160 -52 -25 -3 -113 -58 -147 -92 -49 -48 -54 -78 -24 -134 l19
-35 -50 -65 c-28 -35 -73 -99 -101 -141 -28 -43 -54 -78 -57 -78 -4 0 -13 7
-20 15 -7 8 -17 15 -22 15 -5 0 -15 6 -22 13 -7 6 -27 23 -45 37 -19 14 -49
38 -67 54 -19 15 -34 24 -34 20 0 -5 -4 -4 -8 2 -9 14 -112 67 -112 58 0 -4
-6 -2 -13 4 -7 6 -32 13 -55 14 -23 2 -42 6 -42 9 0 7 -133 4 -189 -5 -76 -13
-144 -44 -213 -98 -36 -29 -65 -55 -63 -56 2 -2 -9 -16 -23 -32 -15 -15 -46
-66 -69 -112 -48 -95 -61 -139 -82 -270 -8 -51 -5 -241 5 -286 3 -15 8 -43 10
-62 5 -36 40 -174 51 -200 3 -8 7 -17 8 -20 20 -66 30 -90 38 -90 6 0 8 -3 4
-6 -3 -3 7 -29 21 -57 14 -29 25 -56 24 -60 -1 -5 2 -6 7 -3 5 3 14 -8 21 -25
20 -47 121 -160 195 -217 55 -42 189 -102 265 -118 80 -17 199 -21 265 -10 38
7 41 6 59 -26 53 -89 203 -221 331 -290 33 -18 63 -31 68 -30 13 4 7 -15 -9
-29 -19 -16 -44 -63 -44 -84 0 -34 92 -122 134 -129 6 -1 16 -5 23 -9 51 -32
316 -94 483 -113 36 -4 77 -7 93 -7 15 1 27 -1 27 -5 0 -21 657 -18 790 3 14
2 57 7 95 10 101 10 346 62 419 89 130 49 188 89 207 144 12 35 1 62 -37 98
l-22 22 46 23 c26 13 50 28 53 32 3 5 8 7 10 6 2 -2 31 14 64 36 87 58 188
157 241 237 28 41 52 67 59 64 7 -2 16 -2 19 2 4 3 12 7 19 8 66 10 88 15 108
23 13 5 26 8 29 8 23 -2 210 139 210 159 0 4 27 37 48 60 7 7 13 16 13 18 0 3
14 36 31 73 28 62 57 136 58 148 0 3 0 6 1 8 0 1 2 9 4 17 2 8 6 24 9 35 5 16
26 108 41 175 33 152 93 327 146 427 41 79 82 143 92 143 4 0 7 6 7 13 0 7 39
39 88 71 88 59 142 115 142 147 0 28 -33 58 -69 64 -19 3 -41 9 -50 13 -17 9
-187 8 -236 -1 -51 -9 -84 -26 -118 -59 -43 -43 -82 -98 -91 -125 -4 -13 -12
-23 -17 -23 -6 0 -8 -4 -5 -8 3 -5 -3 -18 -12 -28 -10 -10 -19 -23 -19 -27 -1
-4 -7 -22 -14 -40 -6 -18 -11 -35 -10 -39 0 -5 -3 -8 -9 -8 -5 0 -10 -6 -10
-12 0 -17 -68 -151 -103 -206 -52 -81 -142 -159 -187 -164 -3 0 -15 -4 -27 -9
-29 -11 -51 20 -55 74 -2 20 -6 37 -9 37 -4 0 -12 27 -20 60 -7 33 -17 60 -21
60 -4 0 -7 3 -7 8 1 4 0 10 -1 15 -1 4 -3 10 -5 15 -2 7 -11 32 -25 67 -39
101 -196 385 -230 415 -3 3 -25 29 -48 58 l-44 53 18 27 c10 15 19 44 20 65 1
31 -6 45 -37 77 -21 22 -57 49 -81 61 -24 12 -45 24 -48 28 -3 3 -12 7 -21 9
-9 1 -59 16 -110 32 -51 17 -100 30 -109 30 -10 0 -33 11 -53 24 -19 13 -37
22 -40 20 -2 -3 -10 2 -17 11 -7 8 -18 15 -25 15 -8 0 -35 11 -62 24 -45 22
-129 54 -163 61 -8 2 -15 4 -15 5 0 2 -27 9 -85 21 -87 17 -87 17 -39 48 46
29 89 71 73 71 -5 0 -4 4 3 8 32 20 15 134 -22 148 -8 4 -12 10 -9 15 3 5 0 9
-6 9 -6 0 -20 8 -30 18 -20 19 -126 60 -177 68 -35 7 -220 13 -225 9z m-1718
-1252 c19 -8 20 -8 53 -17 15 -5 37 -20 48 -35 11 -14 22 -24 23 -21 3 6 69
-46 94 -72 9 -10 22 -18 29 -18 7 0 13 -4 13 -8 0 -5 12 -14 27 -21 20 -9 23
-15 15 -23 -7 -7 -12 -20 -12 -30 0 -10 -4 -26 -10 -36 -12 -21 -35 -103 -33
-119 0 -7 -2 -13 -6 -13 -4 0 -8 -6 -8 -12 0 -7 -4 -26 -8 -43 -4 -16 -8 -37
-9 -45 -1 -8 -6 -28 -9 -45 -28 -131 -39 -350 -24 -504 l8 -74 -68 7 c-37 4
-75 8 -83 10 -43 9 -140 56 -140 68 0 4 -6 8 -13 8 -31 0 -145 137 -195 235
-25 49 -72 189 -72 214 0 10 -3 21 -7 24 -8 9 -13 61 -16 182 -2 89 6 139 31
205 3 8 6 17 6 20 1 3 12 23 26 45 44 73 104 112 190 124 48 7 125 4 150 -6z"/>
</g>
</svg>
