<svg width="400" height="400" viewBox="0 0 400 400" fill="none" xmlns="http://www.w3.org/2000/svg">
<path d="M200 400C310.457 400 400 310.457 400 200C400 89.543 310.457 0 200 0C89.543 0 0 89.543 0 200C0 310.457 89.543 400 200 400Z" fill="#50B95D"/>
<path d="M26.6664 200C26.6664 94.025 109.095 7.31563 213.333 0.453125C208.925 0.1625 204.482 0 200 0C89.543 0 0 89.543 0 200C0 310.457 89.543 400 200 400C204.482 400 208.925 399.838 213.334 399.547C109.095 392.684 26.6664 305.975 26.6664 200Z" fill="#20A83E"/>
<path d="M279.867 261.884C242.025 245.151 201.695 236.667 160 236.667C135.441 236.667 111.02 239.678 87.4117 245.616C78.4992 247.857 73.0719 256.932 75.3141 265.845C77.5555 274.756 86.6289 280.183 95.543 277.942C116.493 272.672 138.18 270.001 160.001 270.001C197.026 270.001 232.819 277.527 266.388 292.372C272.805 295.209 280.756 293.527 285.469 288.327C289.854 283.488 290.895 276.163 288.257 270.223C286.615 266.526 283.563 263.518 279.867 261.884Z" fill="white"/>
<path d="M302.072 202.459C257.12 183.133 209.32 173.334 160 173.334C135.586 173.334 111.183 175.795 87.4696 180.647C76.7961 182.831 69.6969 193.56 71.8844 204.25C74.0946 215.048 84.6789 222.045 95.4875 219.834C116.57 215.521 138.275 213.334 160 213.334C203.855 213.334 246.34 222.038 286.273 239.207C293.738 242.416 302.773 240.613 308.465 234.824C314.19 229.002 315.631 219.91 312.306 212.501C310.295 208.017 306.585 204.399 302.072 202.459Z" fill="white"/>
<path d="M347.541 153.534C345.316 147.713 340.956 143.106 335.266 140.563C279.984 115.859 221.016 103.334 160 103.334C131.586 103.334 103.168 106.125 75.5368 111.631C66.6946 113.393 59.4078 120.456 57.3571 129.234C55.0899 138.938 59.4946 149.181 67.9243 154.399C72.8969 157.477 78.9196 158.544 84.6563 157.398C109.292 152.489 134.641 150 160 150C214.413 150 266.975 161.16 316.227 183.17C322.96 186.179 330.986 185.774 337.376 182.091C343.054 178.816 347.198 173.131 348.577 166.724C349.518 162.345 349.14 157.714 347.541 153.534Z" fill="white"/>
</svg>
