<svg width="512" height="512" viewBox="0 0 512 512" fill="none" xmlns="http://www.w3.org/2000/svg">
<path d="M256 512C397.385 512 512 397.385 512 256C512 114.615 397.385 0 256 0C114.615 0 0 114.615 0 256C0 397.385 114.615 512 256 512Z" fill="#50B95D"/>
<path d="M34.133 256C34.133 120.352 139.641 9.364 273.066 0.58C267.424 0.208 261.737 0 256 0C114.615 0 0 114.615 0 256C0 397.385 114.615 512 256 512C261.737 512 267.424 511.792 273.067 511.42C139.642 502.636 34.133 391.648 34.133 256Z" fill="#20A83E"/>
<path d="M358.23 335.212C309.792 313.793 258.17 302.934 204.8 302.934C173.365 302.934 142.105 306.788 111.887 314.388C100.479 317.257 93.532 328.873 96.402 340.281C99.271 351.687 110.885 358.634 122.295 355.766C149.111 349.02 176.87 345.601 204.801 345.601C252.193 345.601 298.008 355.235 340.977 374.236C349.19 377.867 359.368 375.714 365.4 369.058C371.013 362.864 372.345 353.488 368.969 345.885C366.867 341.153 362.961 337.303 358.23 335.212Z" fill="white"/>
<path d="M386.652 259.147C329.114 234.41 267.93 221.867 204.8 221.867C173.55 221.867 142.314 225.017 111.961 231.228C98.2991 234.024 89.2121 247.757 92.0121 261.44C94.8411 275.262 108.389 284.217 122.224 281.388C149.21 275.867 176.992 273.067 204.8 273.067C260.934 273.067 315.315 284.209 366.43 306.185C375.984 310.292 387.549 307.984 394.835 300.575C402.163 293.123 404.008 281.485 399.752 272.001C397.177 266.262 392.429 261.631 386.652 259.147Z" fill="white"/>
<path d="M444.853 196.524C442.004 189.072 436.424 183.176 429.141 179.921C358.38 148.3 282.901 132.267 204.8 132.267C168.43 132.267 132.055 135.84 96.687 142.888C85.369 145.143 76.042 154.184 73.417 165.42C70.515 177.84 76.153 190.952 86.943 197.631C93.308 201.571 101.017 202.936 108.36 201.469C139.894 195.186 172.341 192 204.8 192C274.448 192 341.728 206.285 404.771 234.457C413.389 238.309 423.662 237.791 431.841 233.076C439.109 228.885 444.413 221.608 446.178 213.407C447.383 207.802 446.899 201.874 444.853 196.524Z" fill="white"/>
</svg>
